<svg width="200" height="250" xmlns="http://www.w3.org/2000/svg" xml:space="preserve" version="1.1">
 <defs>
  <linearGradient y2="0.50003" x2="0.99998" y1="0.50003" x1="-0.00001" id="SVGID_1_">
   <stop stop-color="#C3922E" offset="0"/>
   <stop stop-color="#FFFAC2" offset="0.5584"/>
   <stop stop-color="#CDA667" offset="0.7856"/>
   <stop stop-color="#9C530D" offset="1"/>
  </linearGradient>
  <linearGradient y2="0.50003" x2="1" y1="0.50003" x1="0" id="SVGID_00000087397228693159998820000011763069640531622794_">
   <stop stop-color="#C3922E" offset="0"/>
   <stop stop-color="#FFFAC2" offset="0.5584"/>
   <stop stop-color="#CDA667" offset="0.7856"/>
   <stop stop-color="#9C530D" offset="1"/>
  </linearGradient>
  <linearGradient y2="0.5" x2="1.00001" y1="0.5" x1="-0.00001" id="SVGID_00000068655889644649922840000016628975351685982883_">
   <stop stop-color="#C3922E" offset="0"/>
   <stop stop-color="#FFFAC2" offset="0.5584"/>
   <stop stop-color="#CDA667" offset="0.7856"/>
   <stop stop-color="#9C530D" offset="1"/>
  </linearGradient>
  <linearGradient y2="0.5" x2="0.99982" y1="0.5" x1="0.00018" id="SVGID_00000103264498993562421040000014613267712046614664_">
   <stop stop-color="#C3922E" offset="0"/>
   <stop stop-color="#FFFAC2" offset="0.631"/>
  </linearGradient>
  <linearGradient y2="0" x2="0.49998" y1="1.00002" x1="0.49998" id="SVGID_00000031207865384850431730000011766841877313013661_">
   <stop stop-color="#C3922E" offset="0"/>
   <stop stop-color="#FFFAC2" offset="0.5584"/>
   <stop stop-color="#CDA667" offset="0.7856"/>
   <stop stop-color="#9C530D" offset="1"/>
  </linearGradient>
  <linearGradient y2="-0.00002" x2="0.49998" y1="1" x1="0.49998" id="SVGID_00000036245806987604340050000014343765225303175044_">
   <stop stop-color="#C3922E" offset="0"/>
   <stop stop-color="#FFFAC2" offset="0.5584"/>
   <stop stop-color="#CDA667" offset="0.7856"/>
   <stop stop-color="#9C530D" offset="1"/>
  </linearGradient>
  <linearGradient y2="-0.00001" x2="0.49998" y1="1" x1="0.49998" id="SVGID_00000096054835507415574080000007913219676614033587_">
   <stop stop-color="#C3922E" offset="0"/>
   <stop stop-color="#FFFAC2" offset="0.5584"/>
   <stop stop-color="#CDA667" offset="0.7856"/>
   <stop stop-color="#9C530D" offset="1"/>
  </linearGradient>
  <linearGradient y2="0" x2="0.49999" y1="0.99999" x1="0.49999" id="SVGID_00000125576218180197322570000005832444114848217014_">
   <stop stop-color="#C3922E" offset="0"/>
   <stop stop-color="#FFFAC2" offset="0.5584"/>
   <stop stop-color="#CDA667" offset="0.7856"/>
   <stop stop-color="#9C530D" offset="1"/>
  </linearGradient>
  <linearGradient y2="0.00001" x2="0.49999" y1="1.00002" x1="0.49999" id="SVGID_00000065046807068645407910000009093741264338444164_">
   <stop stop-color="#C3922E" offset="0"/>
   <stop stop-color="#FFFAC2" offset="0.5584"/>
   <stop stop-color="#CDA667" offset="0.7856"/>
   <stop stop-color="#9C530D" offset="1"/>
  </linearGradient>
  <linearGradient y2="-0.00002" x2="0.50005" y1="1" x1="0.50005" id="SVGID_00000181054845373240999890000011496233088384532903_">
   <stop stop-color="#C3922E" offset="0"/>
   <stop stop-color="#FFFAC2" offset="0.5584"/>
   <stop stop-color="#CDA667" offset="0.7856"/>
   <stop stop-color="#9C530D" offset="1"/>
  </linearGradient>
  <linearGradient y2="0.00001" x2="0.49999" y1="1.00001" x1="0.49999" id="SVGID_00000153680024669293704710000013387879311778654368_">
   <stop stop-color="#C3922E" offset="0"/>
   <stop stop-color="#FFFAC2" offset="0.5584"/>
   <stop stop-color="#CDA667" offset="0.7856"/>
   <stop stop-color="#9C530D" offset="1"/>
  </linearGradient>
  <linearGradient y2="0.00004" x2="0.49999" y1="1.00002" x1="0.49999" id="SVGID_00000123428743201503294430000015520752305608720317_">
   <stop stop-color="#C3922E" offset="0"/>
   <stop stop-color="#FFFAC2" offset="0.5584"/>
   <stop stop-color="#CDA667" offset="0.7856"/>
   <stop stop-color="#9C530D" offset="1"/>
  </linearGradient>
  <linearGradient y2="0.5001" x2="1.0001" y1="0.5001" x1="0.00003" id="SVGID_00000009557551856137336880000013627745130968956295_">
   <stop stop-color="#C3922E" offset="0"/>
   <stop stop-color="#FFFAC2" offset="0.5584"/>
   <stop stop-color="#CDA667" offset="0.7856"/>
   <stop stop-color="#9C530D" offset="1"/>
  </linearGradient>
  <linearGradient y2="0.49998" x2="1.0001" y1="0.49998" x1="0.00003" id="SVGID_00000129898562034505349300000008279328167079357352_">
   <stop stop-color="#C3922E" offset="0"/>
   <stop stop-color="#FFFAC2" offset="0.5584"/>
   <stop stop-color="#CDA667" offset="0.7856"/>
   <stop stop-color="#9C530D" offset="1"/>
  </linearGradient>
  <linearGradient y2="0.5001" x2="0.99998" y1="0.5001" x1="-0.0001" id="SVGID_00000080197035262851045780000016271808864498568350_">
   <stop stop-color="#C3922E" offset="0"/>
   <stop stop-color="#FFFAC2" offset="0.5584"/>
   <stop stop-color="#CDA667" offset="0.7856"/>
   <stop stop-color="#9C530D" offset="1"/>
  </linearGradient>
  <linearGradient y2="0.49998" x2="0.99998" y1="0.49998" x1="-0.0001" id="SVGID_00000021811266237465406290000004619198505182545062_">
   <stop stop-color="#C3922E" offset="0"/>
   <stop stop-color="#FFFAC2" offset="0.5584"/>
   <stop stop-color="#CDA667" offset="0.7856"/>
   <stop stop-color="#9C530D" offset="1"/>
  </linearGradient>
  <linearGradient y2="0" x2="0.49995" y1="1.00007" x1="0.49995" id="SVGID_00000067229418107840628660000007663147181657263761_">
   <stop stop-color="#C3922E" offset="0"/>
   <stop stop-color="#FFFAC2" offset="0.5584"/>
   <stop stop-color="#CDA667" offset="0.7856"/>
   <stop stop-color="#9C530D" offset="1"/>
  </linearGradient>
  <linearGradient y2="0" x2="0.50005" y1="1.00007" x1="0.50005" id="SVGID_00000181795554380336105470000008936047311618757034_">
   <stop stop-color="#C3922E" offset="0"/>
   <stop stop-color="#FFFAC2" offset="0.5584"/>
   <stop stop-color="#CDA667" offset="0.7856"/>
   <stop stop-color="#9C530D" offset="1"/>
  </linearGradient>
  <linearGradient y2="0.00008" x2="0.49995" y1="1.00015" x1="0.49995" id="SVGID_00000173136038959408100770000001568648417691657873_">
   <stop stop-color="#C3922E" offset="0"/>
   <stop stop-color="#FFFAC2" offset="0.5584"/>
   <stop stop-color="#CDA667" offset="0.7856"/>
   <stop stop-color="#9C530D" offset="1"/>
  </linearGradient>
  <linearGradient y2="0.00008" x2="0.50005" y1="1.00015" x1="0.50005" id="SVGID_00000111148957993209806550000010799762897856998071_">
   <stop stop-color="#C3922E" offset="0"/>
   <stop stop-color="#FFFAC2" offset="0.5584"/>
   <stop stop-color="#CDA667" offset="0.7856"/>
   <stop stop-color="#9C530D" offset="1"/>
  </linearGradient>
  <radialGradient gradientTransform="matrix(1,0,0,1,-149,-87)" gradientUnits="userSpaceOnUse" r="99.6667" cy="237.1328" cx="250" id="SVGID_00000021820868840796639840000018237127804300314037_">
   <stop stop-color="#C3922E" offset="0"/>
   <stop stop-color="#FFFAC2" offset="0.5584"/>
   <stop stop-color="#CDA667" offset="0.7856"/>
   <stop stop-color="#9C530D" offset="1"/>
  </radialGradient>
  <linearGradient y2="0.85354" x2="0.85355" y1="0.14645" x1="0.14645" id="SVGID_00000009565749891980819710000014681610590904731554_">
   <stop stop-color="#C3922E" offset="0"/>
   <stop stop-color="#FFFAC2" offset="0.631"/>
  </linearGradient>
 </defs>
 <g>
  <title>Layer 1</title>
  <g id="svg_2">
   <g id="svg_3">
    <rect id="svg_4" fill="url(#SVGID_1_)" height="2.945" width="37.297" y="34.772" x="82.352"/>
    <path id="svg_5" fill="url(#SVGID_00000087397228693159998820000011763069640531622794_)" d="m127.32,40.723l-52.64,0c-1.861,0 -3.37,1.509 -3.37,3.37l0,9.454c0,1.861 1.509,3.37 3.37,3.37l17.656,0c3.012,-5.699 8.17,-12.37 8.17,-12.37c2.008,2.937 6.571,9.47 8.164,12.37l18.65,0c1.861,0 3.37,-1.509 3.37,-3.37l0,-9.454c0,-1.861 -1.509,-3.37 -3.37,-3.37z"/>
    <g id="svg_6">
     <path id="svg_7" fill="url(#SVGID_00000068655889644649922840000016628975351685982883_)" d="m113.492,31.337l-24.984,0c-3.4,0 -6.156,-2.756 -6.156,-6.156l0,-16.642c0,-3.4 2.756,-6.156 6.156,-6.156l24.984,0c3.4,0 6.156,2.756 6.156,6.156l0,16.641c0,3.401 -2.756,6.157 -6.156,6.157z"/>
     <ellipse id="svg_8" fill="#07052D" ry="6.748" rx="6.748" cy="-50.68235" cx="326.72941" transform="matrix(0.0676 -0.9977 0.9977 0.0676 129.476 346.266)"/>
     <circle id="svg_9" fill="url(#SVGID_00000103264498993562421040000014613267712046614664_)" r="1.392" cy="16.86" cx="101"/>
     <path id="svg_10" fill="#07052D" d="m101.495,16.86c0,0.273 -0.221,0.495 -0.495,0.495c-0.273,0 -0.495,-0.221 -0.495,-0.495c0,-0.273 0.221,-0.495 0.495,-0.495c0.273,0 0.495,0.222 0.495,0.495z"/>
    </g>
   </g>
   <g id="svg_11">
    <g id="svg_12">
     <g id="svg_13">
      <path id="svg_14" fill="url(#SVGID_00000031207865384850431730000011766841877313013661_)" d="m41.351,187.294c-8.447,-4.677 -18.049,-7.15 -27.768,-7.15l-2.045,0l0,-17.778l4.09,0l0,13.723c9.709,0.323 19.246,2.944 27.705,7.629l-1.982,3.576z"/>
     </g>
     <g id="svg_15">
      <path id="svg_16" fill="url(#SVGID_00000036245806987604340050000014343765225303175044_)" d="m88.767,239.595l-17.778,0l0,-2.045c0,-9.558 -2.395,-19.019 -6.927,-27.361l3.594,-1.952c4.533,8.344 7.071,17.73 7.389,27.268l13.722,0l0,4.09z"/>
     </g>
     <g id="svg_17">
      <path id="svg_18" fill="url(#SVGID_00000096054835507415574080000007913219676614033587_)" d="m131.011,239.595l-17.778,0l0,-4.09l13.723,0c0.323,-9.708 2.944,-19.247 7.629,-27.706l3.579,1.981c-4.679,8.449 -7.152,18.052 -7.152,27.77l0,2.045l-0.001,0z"/>
     </g>
     <g id="svg_19">
      <path id="svg_20" fill="url(#SVGID_00000125576218180197322570000005832444114848217014_)" d="m160.644,187.298l-1.981,-3.577c8.459,-4.686 17.999,-7.308 27.709,-7.632l0,-13.723l4.09,0l0,17.778l-2.045,0c-9.721,0 -19.324,2.474 -27.773,7.154z"/>
     </g>
     <g id="svg_21">
      <path id="svg_22" fill="url(#SVGID_00000065046807068645407910000009093741264338444164_)" d="m190.462,137.899l-4.09,0l0,-13.722c-9.71,-0.324 -19.248,-2.946 -27.709,-7.631l1.981,-3.578c8.45,4.68 18.053,7.153 27.773,7.153l2.045,0l0,17.778z"/>
     </g>
     <g id="svg_23">
      <path id="svg_24" fill="url(#SVGID_00000181054845373240999890000011496233088384532903_)" d="m134.588,92.472c-4.687,-8.46 -7.309,-18.001 -7.633,-27.711l-13.723,0l0,-4.09l17.778,0l0,2.045c0,9.722 2.474,19.326 7.154,27.775l-3.576,1.981z"/>
     </g>
     <g id="svg_25">
      <path id="svg_26" fill="url(#SVGID_00000153680024669293704710000013387879311778654368_)" d="m67.469,92.369l-3.581,-1.975c4.645,-8.424 7.101,-17.996 7.101,-27.679l0,-2.045l17.778,0l0,4.09l-13.722,0c-0.323,9.672 -2.925,19.176 -7.576,27.609z"/>
     </g>
     <g id="svg_27">
      <path id="svg_28" fill="url(#SVGID_00000123428743201503294430000015520752305608720317_)" d="m15.628,137.899l-4.09,0l0,-17.778l2.045,0c9.557,0 19.019,-2.395 27.362,-6.928l1.952,3.594c-8.344,4.533 -17.731,7.071 -27.269,7.39l0,13.722z"/>
     </g>
    </g>
    <g id="svg_29">
     <g id="svg_30">
      <path id="svg_31" fill="url(#SVGID_00000009557551856137336880000013627745130968956295_)" d="m27.172,133.029c0,1.098 -0.89,1.988 -1.988,1.988c-1.098,0 -1.988,-0.89 -1.988,-1.988c0,-1.098 0.89,-1.988 1.988,-1.988c1.098,0 1.988,0.89 1.988,1.988z"/>
      <path id="svg_32" fill="url(#SVGID_00000129898562034505349300000008279328167079357352_)" d="m27.172,168.878c0,1.098 -0.89,1.988 -1.988,1.988c-1.098,0 -1.988,-0.89 -1.988,-1.988c0,-1.098 0.89,-1.988 1.988,-1.988c1.098,0 1.988,0.89 1.988,1.988z"/>
     </g>
     <g id="svg_33">
      <path id="svg_34" fill="url(#SVGID_00000080197035262851045780000016271808864498568350_)" d="m178.804,133.029c0,1.098 -0.89,1.988 -1.988,1.988c-1.098,0 -1.988,-0.89 -1.988,-1.988c0,-1.098 0.89,-1.988 1.988,-1.988c1.098,0 1.988,0.89 1.988,1.988z"/>
      <path id="svg_35" fill="url(#SVGID_00000021811266237465406290000004619198505182545062_)" d="m178.804,168.878c0,1.098 -0.89,1.988 -1.988,1.988c-1.098,0 -1.988,-0.89 -1.988,-1.988c0,-1.098 0.89,-1.988 1.988,-1.988c1.098,0 1.988,0.89 1.988,1.988z"/>
     </g>
     <g id="svg_36">
      <path id="svg_37" fill="url(#SVGID_00000067229418107840628660000007663147181657263761_)" d="m82.267,73.156c1.098,0 1.988,0.89 1.988,1.988c0,1.098 -0.89,1.988 -1.988,1.988c-1.098,0 -1.988,-0.89 -1.988,-1.988c0,-1.098 0.89,-1.988 1.988,-1.988z"/>
      <path id="svg_38" fill="url(#SVGID_00000181795554380336105470000008936047311618757034_)" d="m118.115,73.156c1.098,0 1.988,0.89 1.988,1.988c0,1.098 -0.89,1.988 -1.988,1.988c-1.098,0 -1.988,-0.89 -1.988,-1.988c0,-1.098 0.89,-1.988 1.988,-1.988z"/>
     </g>
     <g id="svg_39">
      <path id="svg_40" fill="url(#SVGID_00000173136038959408100770000001568648417691657873_)" d="m82.267,223.133c1.098,0 1.988,0.89 1.988,1.988c0,1.098 -0.89,1.988 -1.988,1.988c-1.098,0 -1.988,-0.89 -1.988,-1.988c0,-1.098 0.89,-1.988 1.988,-1.988z"/>
      <path id="svg_41" fill="url(#SVGID_00000111148957993209806550000010799762897856998071_)" d="m118.115,223.133c1.098,0 1.988,0.89 1.988,1.988c0,1.098 -0.89,1.988 -1.988,1.988c-1.098,0 -1.988,-0.89 -1.988,-1.988c0,-1.098 0.89,-1.988 1.988,-1.988z"/>
     </g>
    </g>
    <path id="svg_42" fill="url(#SVGID_00000021820868840796639840000018237127804300314037_)" d="m34.967,176.629c0,0 10.109,0.633 19.639,-7.882c0,0 -11.063,-0.12 -19.639,7.882zm112.427,-45.121c0,0 10.109,0.633 19.638,-7.882c0.001,0 -11.062,-0.12 -19.638,7.882zm-19.898,84.657c0,0 0.633,-10.109 -7.882,-19.639c0,0.001 -0.12,11.064 7.882,19.639zm-45.121,-112.426c0,0 0.633,-10.109 -7.882,-19.639c0,0 -0.12,11.063 7.882,19.639zm-9.328,111.825c0,0 7.596,-6.7 8.313,-19.46c0.001,0 -7.907,7.738 -8.313,19.46zm47.592,-111.403c0,0 7.596,-6.701 8.313,-19.46c0.001,0.001 -7.907,7.738 -8.313,19.46zm45.792,73.932c0,0 -6.7,-7.596 -19.46,-8.313c0,0 7.738,7.907 19.46,8.313zm-111.402,-47.592c0,0 -6.701,-7.596 -19.46,-8.313c0,-0.001 7.737,7.907 19.46,8.313zm10.594,27.656c0,0 -1.707,-6.258 0,-15.361c0,0 -31.007,-15.077 -64.29,7.681c0,0 25.318,20.481 64.29,7.68zm70.754,-16.049c0,0 1.707,6.258 0,15.361c0,0 31.007,15.077 64.289,-7.681c0.001,0.001 -25.317,-20.481 -64.289,-7.68zm-27.353,43.402c0,0 -6.258,1.707 -15.361,0c0,0 -15.077,31.007 7.681,64.289c0,0 20.481,-25.317 7.68,-64.289zm-16.048,-70.754c0,0 6.258,-1.707 15.361,0c0,0 15.077,-31.007 -7.681,-64.29c0,0 -20.481,25.318 -7.68,64.29zm-11.317,66.066c0,0 -5.632,-3.218 -10.862,-10.862c0,0 -32.586,11.264 -40.029,50.891c0,0 32.385,-3.42 50.891,-40.029zm38.682,-61.379c0,0 5.632,3.218 10.862,10.862c0,0 32.586,-11.264 40.029,-50.891c0,0.001 -32.385,3.42 -50.891,40.029zm11.348,50.031c0,0 -3.218,5.632 -10.862,10.862c0,0 11.264,32.586 50.891,40.029c0,0 -3.419,-32.385 -40.029,-50.891zm-61.378,-38.682c0,0 3.218,-5.632 10.862,-10.862c0,0 -11.264,-32.586 -50.891,-40.029c0,0 3.419,32.385 40.029,50.891zm4.57,19.341c0,14.425 11.694,26.119 26.119,26.119c14.425,0 26.119,-11.694 26.119,-26.119c0,-14.425 -11.694,-26.119 -26.119,-26.119c-14.425,0 -26.119,11.694 -26.119,26.119zm46.137,0c0,11.055 -8.962,20.018 -20.018,20.018c-11.055,0 -20.018,-8.962 -20.018,-20.018c0,-11.055 8.962,-20.018 20.018,-20.018c11.055,0 20.018,8.962 20.018,20.018z"/>
    <circle id="svg_43" fill="url(#SVGID_00000009565749891980819710000014681610590904731554_)" r="15.344" cy="150.133" cx="101"/>
   </g>
  </g>
 </g>
</svg>